<svg width="40" height="40" viewBox="0 0 40 40" fill="none" xmlns="http://www.w3.org/2000/svg">
<path d="M7.44988 34.9999H32.5499C35.1165 34.9999 36.7165 32.2166 35.4332 29.9999L22.8832 8.31655C21.5999 6.09989 18.3999 6.09989 17.1165 8.31655L4.56654 29.9999C3.28321 32.2166 4.88321 34.9999 7.44988 34.9999ZM19.9999 23.3332C19.0832 23.3332 18.3332 22.5832 18.3332 21.6666V18.3332C18.3332 17.4166 19.0832 16.6666 19.9999 16.6666C20.9165 16.6666 21.6665 17.4166 21.6665 18.3332V21.6666C21.6665 22.5832 20.9165 23.3332 19.9999 23.3332ZM21.6665 29.9999H18.3332V26.6666H21.6665V29.9999Z" fill="white"/>
</svg>
