<svg width="40" height="40" viewBox="0 0 40 40" fill="none" xmlns="http://www.w3.org/2000/svg">
<path d="M13.4595 12.0999L13.6179 12.2382L27.7612 26.3799C27.9466 26.5651 28.0857 26.7913 28.1672 27.0404C28.2487 27.2894 28.2704 27.5541 28.2305 27.8131C28.1905 28.072 28.0901 28.3179 27.9373 28.5308C27.7846 28.7436 27.5837 28.9175 27.3512 29.0382L27.1579 29.1216L9.84952 35.4999C6.59619 36.6999 3.42786 33.6416 4.41619 30.3932L4.49952 30.1499L10.8762 12.8416C10.9605 12.6123 11.0942 12.4043 11.2677 12.2325C11.4413 12.0606 11.6506 11.9289 11.8807 11.8469C12.1108 11.7648 12.3561 11.7344 12.5992 11.7576C12.8424 11.7809 13.0775 11.8574 13.2879 11.9816L13.4595 12.0999ZM28.5112 19.3399C30.0295 19.4199 32.1112 19.7399 33.9212 20.8266C34.2881 21.0441 34.5577 21.394 34.6744 21.8044C34.791 22.2147 34.7459 22.6541 34.5484 23.0322C34.3508 23.4102 34.0158 23.6981 33.6123 23.8366C33.2088 23.9751 32.7676 23.9536 32.3795 23.7766L32.2062 23.6849C31.0695 23.0016 29.6162 22.7349 28.3362 22.6682C27.8087 22.6391 27.28 22.6413 26.7529 22.6749L26.2262 22.7266C25.7914 22.7827 25.352 22.6652 25.0033 22.3997C24.6545 22.1341 24.4243 21.7418 24.3627 21.3078C24.3012 20.8738 24.413 20.4329 24.6742 20.0808C24.9353 19.7287 25.3246 19.4936 25.7579 19.4266C26.6707 19.3088 27.5927 19.2792 28.5112 19.3382M31.8862 14.6949C32.3108 14.6958 32.7192 14.8587 33.0277 15.1505C33.3363 15.4422 33.5219 15.8408 33.5465 16.2647C33.5712 16.6887 33.4331 17.106 33.1605 17.4316C32.8879 17.7572 32.5012 17.9664 32.0795 18.0166L31.8862 18.0282H30.7062C30.2815 18.0273 29.8732 17.8644 29.5647 17.5726C29.2561 17.2809 29.0705 16.8823 29.0458 16.4584C29.0212 16.0345 29.1592 15.6171 29.4319 15.2915C29.7045 14.9659 30.0912 14.7567 30.5129 14.7066L30.7062 14.6949H31.8862ZM26.5829 13.4166C26.8698 13.7035 27.0422 14.0854 27.0677 14.4904C27.0931 14.8955 26.9699 15.2959 26.7212 15.6166L26.5829 15.7732L24.8145 17.5416C24.5146 17.8405 24.1121 18.014 23.6889 18.0269C23.2656 18.0399 22.8533 17.8912 22.5357 17.6111C22.2181 17.3311 22.019 16.9406 21.9789 16.5191C21.9387 16.0976 22.0605 15.6765 22.3195 15.3416L22.4579 15.1849L24.2245 13.4182C24.3793 13.2633 24.5631 13.1403 24.7655 13.0565C24.9678 12.9726 25.1847 12.9294 25.4037 12.9294C25.6227 12.9294 25.8396 12.9726 26.0419 13.0565C26.2443 13.1403 26.4281 13.2616 26.5829 13.4166ZM22.2712 4.64156C23.0179 6.88489 22.6179 9.34156 22.1512 11.0582C21.8719 12.1288 21.4866 13.169 21.0012 14.1632C20.8038 14.5588 20.4574 14.8598 20.0381 15C19.6188 15.1402 19.161 15.1081 18.7654 14.9107C18.3697 14.7134 18.0687 14.3669 17.9286 13.9476C17.7884 13.5283 17.8205 13.0705 18.0179 12.6749C18.4057 11.8764 18.7127 11.0411 18.9345 10.1816C19.3129 8.79489 19.5029 7.28989 19.2112 6.05656L19.1095 5.69656C19.0369 5.48812 19.0064 5.26734 19.0198 5.04701C19.0332 4.82669 19.0902 4.61123 19.1875 4.41312C19.2849 4.21501 19.4206 4.03822 19.5868 3.89299C19.753 3.74777 19.9464 3.63701 20.1558 3.56714C20.3652 3.49727 20.5864 3.46969 20.8065 3.486C21.0266 3.50231 21.2413 3.56218 21.4381 3.66213C21.6349 3.76209 21.8099 3.90014 21.9529 4.06827C22.0959 4.2364 22.2041 4.43127 22.2712 4.64156ZM31.2962 8.70489C31.6086 9.01744 31.7842 9.44128 31.7842 9.88322C31.7842 10.3252 31.6086 10.749 31.2962 11.0616L30.1179 12.2399C29.9641 12.3991 29.7802 12.526 29.5769 12.6134C29.3735 12.7007 29.1548 12.7467 28.9335 12.7486C28.7122 12.7506 28.4928 12.7084 28.2879 12.6246C28.0831 12.5408 27.897 12.417 27.7405 12.2605C27.584 12.1041 27.4603 11.918 27.3765 11.7131C27.2927 11.5083 27.2505 11.2889 27.2524 11.0676C27.2544 10.8463 27.3003 10.6276 27.3877 10.4242C27.475 10.2209 27.602 10.037 27.7612 9.88322L28.9395 8.70489C29.2521 8.39244 29.6759 8.21691 30.1179 8.21691C30.5598 8.21691 30.9836 8.39244 31.2962 8.70489Z" fill="white"/>
</svg>
