<svg width="20" height="20" viewBox="0 0 20 20" fill="none" xmlns="http://www.w3.org/2000/svg">
<path d="M6.77778 9.36666V5.77778H4.88889V6.72222C4.88889 7.32037 5.06204 7.85964 5.40833 8.34005C5.75463 8.82046 6.21111 9.16266 6.77778 9.36666ZM16.2222 9.36666C16.7889 9.16203 17.2454 8.81951 17.5917 8.33911C17.938 7.8587 18.1111 7.31974 18.1111 6.72222V5.77778H16.2222V9.36666ZM10.5556 17.1111V14.1833C9.78426 14.0102 9.09576 13.6837 8.49005 13.2039C7.88435 12.7242 7.43952 12.1219 7.15556 11.3972C5.975 11.2555 4.98743 10.7402 4.19283 9.85116C3.39824 8.96212 3.00063 7.91914 3 6.72222V5.77778C3 5.25833 3.18511 4.81381 3.55533 4.44422C3.92556 4.07463 4.37007 3.88952 4.88889 3.88889H6.77778C6.77778 3.36944 6.96289 2.92493 7.33311 2.55533C7.70333 2.18574 8.14785 2.00063 8.66667 2H14.3333C14.8528 2 15.2976 2.18511 15.6678 2.55533C16.0381 2.92555 16.2229 3.37007 16.2222 3.88889H18.1111C18.6306 3.88889 19.0754 4.074 19.4456 4.44422C19.8158 4.81444 20.0006 5.25896 20 5.77778V6.72222C20 7.91851 19.6024 8.96149 18.8072 9.85116C18.0119 10.7408 17.0244 11.2562 15.8444 11.3972C15.5611 12.1213 15.1166 12.7235 14.5109 13.2039C13.9052 13.6843 13.2164 14.0108 12.4444 14.1833V17.1111H15.2778C15.5454 17.1111 15.7698 17.2018 15.9512 17.3831C16.1325 17.5644 16.2229 17.7886 16.2222 18.0555C16.2216 18.3225 16.1309 18.547 15.9502 18.7289C15.7695 18.9109 15.5454 19.0012 15.2778 19H7.72222C7.45463 19 7.23048 18.9093 7.04978 18.728C6.86907 18.5467 6.77841 18.3225 6.77778 18.0555C6.77715 17.7886 6.86781 17.5644 7.04978 17.3831C7.23174 17.2018 7.45589 17.1111 7.72222 17.1111H10.5556Z" fill="white"/>
</svg>
