<svg width="20" height="20" viewBox="0 0 20 20" fill="none" xmlns="http://www.w3.org/2000/svg">
<g clip-path="url(#clip0_1_1378)">
<path d="M12.3103 7.69004C12.3103 7.68996 12.3102 7.68996 12.3102 7.68996C12.3102 7.68996 12.31 7.68969 12.31 7.68961C11.7181 7.09789 10.901 6.73145 9.99999 6.73145C9.0989 6.73145 8.28187 7.09793 7.69004 7.68961C7.68996 7.68969 7.68996 7.6898 7.68996 7.6898C7.68996 7.6898 7.68969 7.68996 7.68961 7.69004C7.09789 8.28187 6.73145 9.09894 6.73145 9.99999C6.73145 10.901 7.09793 11.7181 7.68961 12.3099C7.68969 12.31 7.68976 12.31 7.68976 12.31C7.68976 12.31 7.68992 12.3103 7.69 12.3104C8.28183 12.9021 9.0989 13.2685 9.99996 13.2685C10.901 13.2685 11.7181 12.9021 12.3099 12.3104C12.31 12.3103 12.31 12.3102 12.31 12.3102C12.31 12.3102 12.3103 12.3101 12.3103 12.31C12.9021 11.7182 13.2685 10.9011 13.2685 10C13.2685 9.09898 12.902 8.28187 12.3103 7.69004ZM11.3073 10.658H10.658V11.3074C10.658 11.6683 10.3608 11.9611 9.99988 11.9611C9.63898 11.9611 9.34617 11.6684 9.34617 11.3074V10.658H8.69246C8.33156 10.658 8.03875 10.3609 8.03875 9.99995C8.03875 9.63906 8.33156 9.34624 8.69246 9.34624H9.34617V8.69254C9.34617 8.33164 9.63898 8.03883 9.99988 8.03883C10.3608 8.03883 10.658 8.33164 10.658 8.69254V9.34624H11.3073C11.6682 9.34624 11.961 9.63906 11.961 9.99995C11.961 10.3609 11.6682 10.658 11.3073 10.658Z" fill="white"/>
<path d="M10.658 0V5.4762C11.4313 5.58761 12.1369 5.89175 12.7353 6.34018L16.6054 2.47007C14.9935 1.05429 12.9304 0.147109 10.658 0Z" fill="white"/>
<path d="M14.5236 10.658C14.4122 11.4313 14.1081 12.1369 13.6597 12.7353L17.5297 16.6054C18.9456 14.9935 19.8527 12.9304 19.9999 10.658H14.5236Z" fill="white"/>
<path d="M5.47616 10.6582H0C0.147148 12.9306 1.05429 14.9937 2.47007 16.6056L6.34014 12.7355C5.89171 12.1371 5.58757 11.4315 5.47616 10.6582Z" fill="white"/>
<path d="M2.47007 3.39453C1.05429 5.00644 0.147148 7.07386 0 9.34632H5.4762C5.58761 8.57296 5.89175 7.86304 6.34018 7.26464L2.47007 3.39453Z" fill="white"/>
<path d="M9.34628 14.5236C8.57292 14.4122 7.863 14.1081 7.2646 13.6597L3.39453 17.5297C5.0064 18.9455 7.0739 19.8527 9.34636 19.9998V14.5236H9.34628Z" fill="white"/>
<path d="M17.53 3.39453L13.6599 7.2646C14.1083 7.863 14.4125 8.57296 14.5239 9.34628H20.0001C19.8529 7.07386 18.9458 5.00644 17.53 3.39453Z" fill="white"/>
<path d="M12.7353 13.6597C12.1369 14.1081 11.4313 14.4123 10.658 14.5236V19.9999C12.9304 19.8527 14.9935 18.9456 16.6054 17.5298L12.7353 13.6597Z" fill="white"/>
<path d="M3.39453 2.47007L7.2646 6.34014C7.863 5.89171 8.57296 5.58753 9.34628 5.47616V0C7.07386 0.147109 5.0064 1.05429 3.39453 2.47007ZM7.38519 4.44335C7.02417 4.44335 6.73148 4.15066 6.73148 3.78964C6.73148 3.42863 7.02417 3.13593 7.38519 3.13593C7.7462 3.13593 8.0389 3.42863 8.0389 3.78964C8.0389 4.15066 7.74624 4.44335 7.38519 4.44335Z" fill="white"/>
</g>
<defs>
<clipPath id="clip0_1_1378">
<rect width="20" height="20" fill="white"/>
</clipPath>
</defs>
</svg>
