<svg width="14" height="14" viewBox="0 0 14 14" fill="none" xmlns="http://www.w3.org/2000/svg">
<g clip-path="url(#clip0_68_1805)">
<path fill-rule="evenodd" clip-rule="evenodd" d="M7 0.562988C6.86241 0.563423 6.72767 0.602208 6.61091 0.674986C6.49415 0.747764 6.39998 0.851654 6.339 0.974988L4.073 5.75599C4.03257 5.82892 3.97455 5.89058 3.90421 5.93536C3.83387 5.98014 3.75344 6.00662 3.67026 6.01238C3.58707 6.01815 3.50376 6.00302 3.42792 5.96836C3.35207 5.93371 3.2861 5.88065 3.236 5.81399L1.705 3.10599L1.681 3.06699C1.6053 2.95683 1.49881 2.87143 1.37485 2.82145C1.25088 2.77148 1.11494 2.75914 0.984 2.78599C0.84682 2.81481 0.72238 2.88656 0.628707 2.99084C0.535035 3.09512 0.476996 3.22651 0.463 3.36599C0.348 4.43399 0.25 5.54699 0.25 6.68799C0.25 7.82799 0.348 8.94099 0.463 10.009C0.554091 10.8257 0.919628 11.5874 1.49983 12.1694C2.08002 12.7514 2.84054 13.1193 3.657 13.213C4.731 13.333 5.852 13.438 7 13.438C8.148 13.438 9.269 13.332 10.343 13.213C11.1595 13.1193 11.92 12.7514 12.5002 12.1694C13.0804 11.5874 13.4459 10.8257 13.537 10.009C13.652 8.94099 13.75 7.82799 13.75 6.68699C13.75 5.54699 13.652 4.43399 13.537 3.36599C13.523 3.22651 13.465 3.09512 13.3713 2.99084C13.2776 2.88656 13.1532 2.81481 13.016 2.78599C12.8776 2.75798 12.7339 2.77374 12.6049 2.83108C12.4759 2.88842 12.3679 2.9845 12.296 3.10599L10.764 5.81399C10.7139 5.88065 10.6479 5.93371 10.5721 5.96836C10.4962 6.00302 10.4129 6.01815 10.3297 6.01238C10.2466 6.00662 10.1661 5.98014 10.0958 5.93536C10.0255 5.89058 9.96743 5.82892 9.927 5.75599L7.66 0.974988L7.65 0.954988C7.58715 0.837042 7.49353 0.738318 7.37909 0.669299C7.26464 0.60028 7.13364 0.563543 7 0.562988Z" fill="white"/>
</g>
<defs>
<clipPath id="clip0_68_1805">
<rect width="14" height="14" fill="white"/>
</clipPath>
</defs>
</svg>
