<svg width="27" height="25" viewBox="0 0 27 25" fill="none" xmlns="http://www.w3.org/2000/svg">
<path d="M13.52 0C20.6998 2.4779e-07 26.52 5.59644 26.52 12.5C26.52 19.4036 20.6998 25 13.52 25C6.34032 25 0.52002 19.4036 0.52002 12.5C0.52002 5.59644 6.34032 0 13.52 0ZM13.52 16C10.6188 16 7.94896 16.5002 5.82959 18.5508C5.47334 18.8955 5.35062 19.488 5.73779 19.8662C7.71851 21.8007 10.4737 23 13.52 23C16.5669 23 19.3222 21.8001 21.3032 19.8643C21.6903 19.4859 21.568 18.8936 21.2114 18.5488C19.092 16.4998 16.4215 16 13.52 16ZM13.52 5C11.2226 5 9.35986 6.79086 9.35986 9C9.35986 11.2091 11.2226 13 13.52 13C15.8175 13 17.6802 11.2091 17.6802 9C17.6802 6.79086 15.8175 5 13.52 5Z" fill="white" fill-opacity="0.45"/>
</svg>
