<svg width="22" height="22" viewBox="0 0 22 22" fill="none" xmlns="http://www.w3.org/2000/svg">
<path d="M20.0332 14.967C20.3296 14.9671 20.6137 15.0856 20.8232 15.2952C21.0328 15.5048 21.1504 15.7888 21.1504 16.0852V18.9924C21.1504 19.6311 20.8969 20.2439 20.4453 20.6956C19.9937 21.147 19.3808 21.4006 18.7422 21.4006H3.25781C2.61941 21.4005 2.00717 21.1469 1.55566 20.6956C1.10405 20.2439 0.849613 19.6311 0.849609 18.9924V16.0852C0.849611 15.7888 0.968111 15.5048 1.17773 15.2952C1.38736 15.0855 1.67132 14.967 1.96777 14.967C2.26422 14.967 2.54819 15.0855 2.75781 15.2952C2.96744 15.5048 3.08594 15.7888 3.08594 16.0852V18.9924C3.08595 19.0875 3.16274 19.1651 3.25781 19.1653H18.7422C18.7879 19.1653 18.8319 19.1467 18.8643 19.1145C18.8966 19.0821 18.915 19.0382 18.915 18.9924V16.0852C18.915 15.7889 19.0328 15.5048 19.2422 15.2952C19.4518 15.0855 19.7367 14.967 20.0332 14.967Z" fill="#7B7B7B" stroke="#7B7B7B" stroke-width="0.3"/>
<path d="M11.2607 2.81543C11.5572 2.81543 11.8412 2.93393 12.0508 3.14355C12.2604 3.35318 12.3789 3.63714 12.3789 3.93359V14.3672C12.3789 14.6636 12.2604 14.9486 12.0508 15.1582C11.8412 15.3676 11.557 15.4854 11.2607 15.4854C10.9644 15.4854 10.6803 15.3676 10.4707 15.1582C10.2611 14.9486 10.1426 14.6636 10.1426 14.3672V3.93457C10.1427 3.63823 10.2612 3.35408 10.4707 3.14453C10.6799 2.93537 10.9639 2.81543 11.2607 2.81543Z" fill="#7B7B7B" stroke="#7B7B7B" stroke-width="0.3"/>
<path d="M11.2612 1.1001C11.5529 1.10019 11.8328 1.21476 12.0415 1.41846L16.3569 5.6333L16.3579 5.63428C16.5655 5.84227 16.6834 6.12363 16.6851 6.41748C16.6866 6.71138 16.572 6.9943 16.3667 7.20459C16.1613 7.41488 15.8813 7.53614 15.5874 7.5415C15.2936 7.54684 15.0093 7.43642 14.7964 7.23389L14.7944 7.23193L11.2603 3.77979L7.72705 7.23193C7.62279 7.3361 7.49908 7.41898 7.36279 7.4751C7.226 7.53141 7.07908 7.55986 6.93115 7.55908C6.7832 7.55828 6.63669 7.52799 6.50049 7.47021C6.36425 7.41241 6.24061 7.32804 6.13721 7.22217C6.03384 7.11631 5.95251 6.99055 5.89795 6.85303C5.84346 6.71557 5.81714 6.56825 5.81982 6.42041C5.82257 6.27269 5.85417 6.12697 5.91357 5.9917C5.97312 5.85622 6.05932 5.73339 6.1665 5.63135L10.48 1.41846C10.6888 1.2146 10.9694 1.1001 11.2612 1.1001Z" fill="#7B7B7B" stroke="#7B7B7B" stroke-width="0.3"/>
</svg>
